<mxfile host="app.diagrams.net" agent="Mozilla/5.0 (Windows NT 10.0; Win64; x64) AppleWebKit/537.36 (KHTML, like Gecko) Chrome/129.0.0.0 Safari/537.36 Edg/129.0.0.0" border="50" scale="3" compressed="false" locked="false" version="24.7.17">
  <diagram name="Blank" id="YmL12bMKpDGza6XwsDPr">
    <mxGraphModel dx="1613" dy="1136" grid="0" gridSize="10" guides="1" tooltips="1" connect="1" arrows="1" fold="1" page="0" pageScale="1" pageWidth="827" pageHeight="1169" background="none" math="1" shadow="0">
      <root>
        <mxCell id="X5NqExCQtvZxIxQ7pmgY-0" />
        <mxCell id="1" parent="X5NqExCQtvZxIxQ7pmgY-0" />
        <mxCell id="Gr0Zq-AI6Quabplr0KPa-179" value="Mindmap" style="swimlane;html=1;startSize=20;horizontal=1;containerType=tree;labelBackgroundColor=none;strokeColor=#D4E1F5;strokeWidth=1;fillColor=none;fontFamily=Comic Sans MS;fontSize=9;swimlaneLine=0;dashed=1;collapsible=0;shadow=1;" parent="1" vertex="1">
          <mxGeometry x="-120" y="-365" width="1013" height="631" as="geometry" />
        </mxCell>
        <mxCell id="Gr0Zq-AI6Quabplr0KPa-180" value="&lt;font face=&quot;Comic Sans MS&quot;&gt;palyerState&lt;/font&gt;" style="ellipse;whiteSpace=wrap;html=1;align=center;container=1;recursiveResize=0;treeFolding=1;strokeWidth=2;shadow=1;" parent="Gr0Zq-AI6Quabplr0KPa-179" vertex="1">
          <mxGeometry x="40" y="219" width="154" height="113" as="geometry" />
        </mxCell>
        <mxCell id="C0n5wkAJlQ-UWbwlJ3pO-5" value="&lt;font face=&quot;Comic Sans MS&quot;&gt;GroundedState&lt;/font&gt;" style="ellipse;whiteSpace=wrap;html=1;align=center;container=1;recursiveResize=0;treeFolding=1;strokeWidth=2;shadow=1;" vertex="1" parent="Gr0Zq-AI6Quabplr0KPa-179">
          <mxGeometry x="240" y="23" width="154" height="113" as="geometry" />
        </mxCell>
        <mxCell id="C0n5wkAJlQ-UWbwlJ3pO-6" value="&lt;font face=&quot;Comic Sans MS&quot;&gt;airState&lt;/font&gt;" style="ellipse;whiteSpace=wrap;html=1;align=center;container=1;recursiveResize=0;treeFolding=1;strokeWidth=2;shadow=1;" vertex="1" parent="Gr0Zq-AI6Quabplr0KPa-179">
          <mxGeometry x="240" y="417" width="154" height="113" as="geometry" />
        </mxCell>
        <mxCell id="C0n5wkAJlQ-UWbwlJ3pO-16" value="" style="edgeStyle=segmentEdgeStyle;endArrow=classic;html=1;curved=0;rounded=0;endSize=8;startSize=8;entryX=0.5;entryY=1;entryDx=0;entryDy=0;exitX=1;exitY=0.5;exitDx=0;exitDy=0;" edge="1" parent="Gr0Zq-AI6Quabplr0KPa-179" source="Gr0Zq-AI6Quabplr0KPa-180" target="C0n5wkAJlQ-UWbwlJ3pO-5">
          <mxGeometry width="50" height="50" relative="1" as="geometry">
            <mxPoint x="221" y="414" as="sourcePoint" />
            <mxPoint x="271" y="364" as="targetPoint" />
          </mxGeometry>
        </mxCell>
        <mxCell id="C0n5wkAJlQ-UWbwlJ3pO-17" value="" style="edgeStyle=segmentEdgeStyle;endArrow=classic;html=1;curved=0;rounded=0;endSize=8;startSize=8;exitX=1;exitY=0.5;exitDx=0;exitDy=0;entryX=0.5;entryY=0;entryDx=0;entryDy=0;" edge="1" parent="Gr0Zq-AI6Quabplr0KPa-179" source="Gr0Zq-AI6Quabplr0KPa-180" target="C0n5wkAJlQ-UWbwlJ3pO-6">
          <mxGeometry width="50" height="50" relative="1" as="geometry">
            <mxPoint x="542" y="377" as="sourcePoint" />
            <mxPoint x="592" y="327" as="targetPoint" />
          </mxGeometry>
        </mxCell>
      </root>
    </mxGraphModel>
  </diagram>
</mxfile>
